<?xml version="1.0" encoding="utf-8"?>
<!-- Generator: Adobe Illustrator 27.4.1, SVG Export Plug-In . SVG Version: 6.00 Build 0)  -->
<svg version="1.1" id="Layer_1" xmlns="http://www.w3.org/2000/svg" xmlns:xlink="http://www.w3.org/1999/xlink" x="0px" y="0px"
	 viewBox="0 0 200 200" style="enable-background:new 0 0 200 200;" xml:space="preserve">
<style type="text/css">
	.st0{fill:#FFFFFF;}
</style>
<g>
	<circle cx="100" cy="100" r="49.6"/>
	<path d="M100,52.4c26.2,0,47.6,21.3,47.6,47.6s-21.3,47.6-47.6,47.6S52.4,126.2,52.4,100S73.8,52.4,100,52.4 M100,48.4
		c-28.5,0-51.6,23.1-51.6,51.6s23.1,51.6,51.6,51.6s51.6-23.1,51.6-51.6S128.5,48.4,100,48.4L100,48.4z"/>
</g>
<path class="st0" d="M103.1,70.6l1.7,5.8c2.2,0.7,2.9,1,5.1,1.7l4.8-3.7c2.6,1.9,2.4,1.8,5.1,3.7l-2,5.7c1.3,1.9,1.8,2.5,3.2,4.3
	l6.1-0.2c1,3.1,0.9,2.9,1.9,5.9l-5,3.4c0,2.3,0,3.1,0,5.4l5,3.4c-1,3.1-0.9,2.9-1.9,5.9l-6.1-0.2c-1.3,1.9-1.8,2.5-3.2,4.3l2,5.7
	c-2.6,1.9-2.4,1.8-5.1,3.7l-4.8-3.7c-2.2,0.7-2.9,1-5.1,1.7l-1.7,5.8c-3.2,0-3,0-6.2,0l-1.7-5.8c-2.2-0.7-2.9-1-5.1-1.7l-4.8,3.7
	c-2.6-1.9-2.4-1.8-5.1-3.7l2-5.7c-1.3-1.9-1.8-2.5-3.2-4.3l-6.1,0.2c-1-3.1-0.9-2.9-1.9-5.9l5-3.4c0-2.3,0-3.1,0-5.4l-5-3.4
	c1-3.1,0.9-2.9,1.9-5.9l6.1,0.2c1.3-1.9,1.8-2.5,3.2-4.3l-2-5.7c2.6-1.9,2.4-1.8,5.1-3.7l4.8,3.7c2.2-0.7,2.9-1,5.1-1.7l1.7-5.8
	C100.1,70.6,99.9,70.6,103.1,70.6z"/>
</svg>
